<svg xmlns="http://www.w3.org/2000/svg" xml:space="preserve" width="24" height="24" style="shape-rendering:geometricPrecision;text-rendering:geometricPrecision;image-rendering:optimizeQuality;fill-rule:evenodd;clip-rule:evenodd" viewBox="0 0 2541 2541"><path fill="currentColor" d="M173 0h1399c-42 139-50 303 7 479l228 66c-13-39-25-91-33-134l-4-131c91 90 334 354 406 386 61 27 177 23 245 0l-92-92C1916 159 1786 80 1797 0h175l569 569v173c-372 172-744-159-1241-199-624-50-855 427-729 944l220 68c-3-67-22-100-22-171 108 104 300 374 556 292l-573-574 65-151 771 773C1228 2012 559 1417 0 1574V173C0 78 78 0 173 0zm2067 0h128c95 0 173 78 173 173v131L2240 0zm301 970v1398c0 95-78 173-173 173H967c42-139 50-303-8-479l-227-66c12 39 24 91 32 135l5 131c-264-262-379-478-651-387l92 93c413 415 542 493 531 573H566L0 1975v-177c371-169 743 160 1239 200 623 50 855-426 729-944l-220-67c2 66 21 99 22 170-109-104-300-374-557-291l573 574-64 150-772-772c142-114 417-68 576-25 208 55 365 142 574 180 145 26 287 45 441-3zM298 2541H173c-95 0-173-78-173-173v-127l298 300z"/></svg>
