<svg width="280" height="280" viewBox="0 0 280 280" fill="none" xmlns="http://www.w3.org/2000/svg">
<path d="M211.68 72.463V158.647C211.68 160.831 209.888 162.567 207.76 162.567H70.952C68.768 162.567 67.032 160.831 67.032 158.647V72.463C67.032 70.279 68.768 68.543 70.952 68.543H207.704C209.888 68.543 211.624 70.279 211.68 72.463Z" fill="white"/>
<path d="M207.704 162.848H70.952C68.6 162.848 66.752 160.944 66.752 158.648V72.4637C66.752 70.1117 68.656 68.2637 70.952 68.2637H207.704C210.056 68.2637 211.904 70.1677 211.904 72.4637V158.648C211.96 160.944 210.056 162.848 207.704 162.848ZM70.952 68.8237C68.936 68.8237 67.312 70.4477 67.312 72.4637V158.648C67.312 160.664 68.936 162.288 70.952 162.288H207.704C209.72 162.288 211.344 160.664 211.344 158.648V72.4637C211.344 70.4477 209.72 68.8237 207.704 68.8237H70.952Z" fill="#082F49"/>
<path d="M205.688 74.4238H72.9121V156.688H205.688V74.4238Z" fill="white"/>
<path d="M205.744 156.969H72.9121C72.7441 156.969 72.6321 156.857 72.6321 156.689V74.4245C72.6321 74.2565 72.7441 74.1445 72.9121 74.1445H205.744C205.912 74.1445 206.024 74.2565 206.024 74.4245V156.689C206.024 156.857 205.912 156.969 205.744 156.969ZM73.2481 156.409H205.464V74.7045H73.2481V156.409Z" fill="#082F49"/>
<path d="M70 121.407C69.272 121.407 68.656 120.791 68.656 120.063C68.656 119.335 69.272 118.719 70 118.719C70.728 118.719 71.344 119.335 71.344 120.063C71.344 120.791 70.728 121.407 70 121.407ZM70 119.335C69.608 119.335 69.272 119.671 69.272 120.063C69.272 120.455 69.608 120.791 70 120.791C70.392 120.791 70.728 120.455 70.728 120.063C70.784 119.671 70.448 119.335 70 119.335Z" fill="white"/>
<path d="M70 118.215C69.272 118.215 68.656 117.599 68.656 116.871V111.047C68.656 110.319 69.272 109.703 70 109.703C70.728 109.703 71.344 110.319 71.344 111.047V116.871C71.344 117.599 70.784 118.215 70 118.215ZM70 110.319C69.608 110.319 69.272 110.655 69.272 111.047V116.871C69.272 117.263 69.608 117.599 70 117.599C70.392 117.599 70.728 117.263 70.728 116.871V111.047C70.784 110.599 70.448 110.263 70 110.319Z" fill="white"/>
<path d="M70 121.407C69.272 121.407 68.656 120.791 68.656 120.063C68.656 119.335 69.272 118.719 70 118.719C70.728 118.719 71.344 119.335 71.344 120.063C71.344 120.791 70.728 121.407 70 121.407ZM70 119.335C69.608 119.335 69.272 119.671 69.272 120.063C69.272 120.455 69.608 120.791 70 120.791C70.392 120.791 70.728 120.455 70.728 120.063C70.784 119.671 70.448 119.335 70 119.335Z" fill="#082F49"/>
<path d="M70 118.215C69.272 118.215 68.656 117.599 68.656 116.871V111.047C68.656 110.319 69.272 109.703 70 109.703C70.728 109.703 71.344 110.319 71.344 111.047V116.871C71.344 117.599 70.784 118.215 70 118.215ZM70 110.319C69.608 110.319 69.272 110.655 69.272 111.047V116.871C69.272 117.263 69.608 117.599 70 117.599C70.392 117.599 70.728 117.263 70.728 116.871V111.047C70.784 110.599 70.448 110.263 70 110.319Z" fill="#082F49"/>
<path d="M70 121.407C69.272 121.407 68.656 120.791 68.656 120.063C68.656 119.335 69.272 118.719 70 118.719C70.728 118.719 71.344 119.335 71.344 120.063C71.344 120.791 70.728 121.407 70 121.407ZM70 119.335C69.608 119.335 69.272 119.671 69.272 120.063C69.272 120.455 69.608 120.791 70 120.791C70.392 120.791 70.728 120.455 70.728 120.063C70.784 119.671 70.448 119.335 70 119.335Z" stroke="#082F49" stroke-linecap="round" stroke-linejoin="round"/>
<path d="M70 118.215C69.272 118.215 68.656 117.599 68.656 116.871V111.047C68.656 110.319 69.272 109.703 70 109.703C70.728 109.703 71.344 110.319 71.344 111.047V116.871C71.344 117.599 70.784 118.215 70 118.215ZM70 110.319C69.608 110.319 69.272 110.655 69.272 111.047V116.871C69.272 117.263 69.608 117.599 70 117.599C70.392 117.599 70.728 117.263 70.728 116.871V111.047C70.784 110.599 70.448 110.263 70 110.319Z" stroke="#082F49" stroke-linecap="round" stroke-linejoin="round"/>
<path d="M230.944 188.215C235.312 188.327 238.056 190.343 241.864 198.855C245.672 207.367 252.392 223.999 252.392 223.999C252.392 223.999 206.024 235.031 205.744 234.527C205.464 233.967 202.384 199.023 202.384 199.023C202.048 196.559 203.448 194.207 205.8 193.311C209.832 191.687 221.032 187.767 230.944 188.215Z" fill="#FCBFA5"/>
<path d="M230.944 188.216C230.944 188.216 216.048 188.552 205.8 193.312L201.768 173.152C201.768 173.152 196.672 167.048 194.824 162.568H207.76C208.656 162.568 209.552 162.232 210.28 161.672C201.544 149.744 197.456 134.848 200.088 133.448C202.328 132.216 207.256 135.576 211.68 140.056V120.176C217 124.768 226.072 143.584 226.072 149.8C226.072 156.464 223.608 162.736 224.952 169.736C226.24 176.736 230.944 188.216 230.944 188.216Z" fill="white"/>
<path d="M205.744 193.592C205.688 193.592 205.632 193.592 205.632 193.536C205.576 193.48 205.52 193.424 205.464 193.368L201.432 173.264C200.872 172.592 196.28 166.992 194.488 162.624C194.432 162.512 194.488 162.456 194.544 162.344C194.6 162.288 194.712 162.232 194.768 162.232H207.704C208.488 162.232 209.216 162.008 209.832 161.56C206.304 156.688 203.448 151.312 201.32 145.712C199.472 140.728 198.632 136.528 199.08 134.456C199.136 133.952 199.416 133.448 199.864 133.168C202.384 131.824 207.312 135.408 211.344 139.328V120.12C211.344 120.008 211.4 119.896 211.512 119.84C211.624 119.784 211.736 119.784 211.792 119.896C217.056 124.432 226.24 143.416 226.24 149.744C226.184 152.32 225.904 154.952 225.456 157.528C224.896 161.392 224.28 165.424 225.12 169.624C226.464 176.512 231.112 187.936 231.112 188.048C231.168 188.104 231.168 188.216 231.112 188.328C231.056 188.384 230.944 188.44 230.888 188.44C230.72 188.44 215.936 188.832 205.856 193.536C205.856 193.592 205.8 193.592 205.744 193.592ZM195.216 162.848C197.12 167.272 201.88 172.928 201.936 172.984C201.992 173.04 201.992 173.04 201.992 173.096L205.968 192.864C215.208 188.664 228.032 187.992 230.496 187.88C229.656 185.808 225.792 175.952 224.616 169.736C223.776 165.424 224.392 161.392 224.952 157.416C225.4 154.896 225.624 152.32 225.68 149.744C225.68 143.696 217.168 125.944 211.904 120.792V140C211.904 140.112 211.848 140.224 211.736 140.28C211.624 140.336 211.512 140.28 211.4 140.224C206.528 135.296 201.992 132.608 200.144 133.672C199.864 133.896 199.64 134.232 199.64 134.568C198.8 138.264 202.664 150.864 210.448 161.448C210.56 161.56 210.504 161.728 210.392 161.84C209.664 162.456 208.712 162.792 207.704 162.792L195.216 162.848Z" fill="#082F49"/>
<path d="M217.28 145.991C217.224 145.991 217.112 145.935 217.056 145.879C214.088 142.687 211.456 140.279 211.456 140.279C211.344 140.167 211.344 139.999 211.456 139.887C211.568 139.775 211.736 139.775 211.848 139.887C211.848 139.887 214.48 142.351 217.504 145.543C217.616 145.655 217.616 145.823 217.504 145.935C217.448 145.935 217.336 145.991 217.28 145.991Z" fill="#082F49"/>
<path d="M212.296 164.976C212.184 164.976 212.128 164.92 212.072 164.864L210 161.84C209.888 161.728 209.944 161.504 210.056 161.448C210.168 161.336 210.392 161.392 210.448 161.504L212.52 164.584C212.632 164.696 212.576 164.864 212.464 164.976C212.408 164.976 212.352 164.976 212.296 164.976Z" fill="#082F49"/>
<path d="M47.712 188.215C43.344 188.327 40.6 190.343 36.792 198.855C32.984 207.367 26.208 223.999 26.208 223.999C26.208 223.999 72.576 235.031 72.856 234.527C73.136 233.967 76.272 199.023 76.272 199.023C76.608 196.559 75.208 194.207 72.856 193.311C68.824 191.687 57.624 187.767 47.712 188.215Z" fill="#FCBFA5"/>
<path d="M47.7119 188.216C47.7119 188.216 62.6079 188.552 72.8559 193.312L76.8879 173.152C76.8879 173.152 81.9839 167.104 83.8319 162.568H70.8959C69.9999 162.568 69.1039 162.232 68.3759 161.672C77.1119 149.744 81.1999 134.848 78.5679 133.448C76.3279 132.216 71.3999 135.576 66.9759 140.056V120.176C61.6559 124.768 52.5839 143.584 52.5839 149.8C52.5839 156.464 55.0479 162.736 53.7039 169.736C52.3599 176.736 47.7119 188.216 47.7119 188.216Z" fill="white"/>
<path d="M72.856 193.592C72.8 193.592 72.8 193.592 72.744 193.536C62.608 188.832 47.824 188.44 47.656 188.44C47.544 188.44 47.488 188.384 47.432 188.328C47.376 188.272 47.376 188.16 47.376 188.048C47.432 187.936 52.08 176.568 53.424 169.624C54.208 165.424 53.648 161.392 53.088 157.528C52.64 154.952 52.416 152.376 52.304 149.744C52.304 143.416 61.488 124.432 66.752 119.896C66.864 119.84 66.976 119.784 67.088 119.84C67.2 119.896 67.256 120.008 67.256 120.12V139.328C71.232 135.352 76.216 131.824 78.736 133.168C79.184 133.448 79.464 133.952 79.52 134.456C79.968 136.528 79.184 140.728 77.28 145.712C75.152 151.368 72.296 156.688 68.768 161.56C69.384 162.008 70.112 162.232 70.896 162.232H83.832C83.944 162.232 84 162.288 84.056 162.344C84.112 162.4 84.112 162.512 84.112 162.624C82.32 166.992 77.728 172.592 77.168 173.264L73.136 193.368C73.136 193.48 73.08 193.536 72.968 193.536C72.968 193.592 72.912 193.592 72.856 193.592ZM48.104 187.936C50.568 188.048 63.392 188.72 72.632 192.92L76.608 173.152C76.608 173.096 76.664 173.04 76.664 173.04C76.72 172.984 81.48 167.272 83.384 162.904H70.84C69.832 162.904 68.88 162.568 68.152 161.952C68.04 161.84 68.04 161.672 68.096 161.56C75.824 150.976 79.744 138.32 78.904 134.68C78.848 134.344 78.68 134.008 78.4 133.784C76.496 132.776 71.96 135.408 67.144 140.336C67.032 140.448 66.864 140.448 66.752 140.336C66.696 140.28 66.64 140.224 66.64 140.112V120.904C61.376 126.056 52.864 143.808 52.864 149.856C52.92 152.432 53.2 155.008 53.592 157.528C54.152 161.448 54.768 165.536 53.928 169.848C52.808 176.008 48.944 185.864 48.104 187.936Z" fill="#082F49"/>
<path d="M61.3759 145.992C61.2079 145.992 61.0959 145.88 61.0959 145.712C61.0959 145.656 61.0959 145.544 61.2079 145.488C64.176 142.296 66.8079 139.888 66.8639 139.832C66.9759 139.72 67.1439 139.72 67.2559 139.832C67.3679 139.944 67.3679 140.112 67.2559 140.224C67.1999 140.224 64.6239 142.632 61.6559 145.824C61.4879 145.936 61.4319 145.992 61.3759 145.992Z" fill="#082F49"/>
<path d="M66.3041 164.975C66.2481 164.975 66.1921 164.975 66.1361 164.919C66.0241 164.807 65.9681 164.639 66.0801 164.527L68.1521 161.447C68.2641 161.335 68.4321 161.279 68.5441 161.391C68.6561 161.503 68.7121 161.671 68.6001 161.783L66.4721 164.863C66.4721 164.975 66.3601 164.975 66.3041 164.975Z" fill="#082F49"/>
<path d="M105.056 156.969C104.888 156.969 104.776 156.857 104.776 156.689V74.4245C104.776 74.2565 104.888 74.1445 105.056 74.1445C105.224 74.1445 105.336 74.2565 105.336 74.4245V156.689C105.392 156.857 105.224 156.969 105.056 156.969Z" fill="#082F49"/>
<path d="M99.3998 79.3516H78.7358V85.4556H99.3998V79.3516Z" fill="#FCBFA5"/>
<path d="M99.3439 85.6796H78.6799C78.5119 85.6796 78.3999 85.5676 78.3999 85.3996V79.2956C78.3999 79.1276 78.5119 79.0156 78.6799 79.0156H99.3439C99.5119 79.0156 99.6239 79.1276 99.6239 79.2956V85.3996C99.6239 85.5676 99.5119 85.6796 99.3439 85.6796ZM79.0159 85.1196H99.0639V79.6316H79.0159V85.1196Z" fill="#082F49"/>
<path d="M80.752 83.1043L83.16 80.6963C83.328 80.5283 83.664 80.5283 83.832 80.6963C84 80.8643 84 81.2003 83.832 81.3683L81.424 83.7763L80.752 83.1043Z" fill="white"/>
<path d="M81.4239 84.0557C81.3679 84.0557 81.2559 84.0557 81.1999 83.9997L80.5279 83.3277C80.4719 83.2717 80.4719 83.2157 80.4719 83.1037C80.4719 83.0477 80.5279 82.9357 80.5279 82.8797L82.9359 80.4717C83.2159 80.1917 83.7199 80.1917 84.0559 80.4717C84.3919 80.7517 84.3359 81.2557 84.0559 81.5917L81.6479 83.9997C81.5919 83.9997 81.4799 84.0557 81.4239 84.0557ZM81.1439 83.1037L81.4239 83.3837L83.6079 81.1997C83.6639 81.1437 83.6639 80.9757 83.6079 80.9197C83.5519 80.8637 83.3839 80.8637 83.3279 80.9197L81.1439 83.1037Z" fill="#082F49"/>
<path d="M81.4239 83.7775L80.7519 83.1055L80.3599 84.1135L81.4239 83.7775Z" fill="#082F49"/>
<path d="M80.3598 84.4482C80.3038 84.4482 80.1918 84.3922 80.1358 84.3362C80.0798 84.2802 80.0238 84.1682 80.0798 84.0562L80.4718 82.9922C80.5278 82.8802 80.5838 82.8242 80.6958 82.8242C80.8078 82.8242 80.8638 82.8242 80.9758 82.8802L81.6478 83.5522C81.7598 83.6642 81.7598 83.8322 81.6478 83.9442C81.5918 84.0002 81.5918 84.0002 81.5358 84.0002L80.4718 84.3922C80.4158 84.4482 80.4158 84.4482 80.3598 84.4482ZM80.8638 83.6082V83.6642H80.9198L80.8638 83.6082Z" fill="#082F49"/>
<path d="M99.3439 96.7133H78.6799C78.5119 96.7133 78.3999 96.6013 78.3999 96.4333V91.2253C78.3999 91.0573 78.5119 90.9453 78.6799 90.9453H99.3439C99.5119 90.9453 99.6239 91.0573 99.6239 91.2253V96.4333C99.6799 96.5453 99.5119 96.7133 99.3439 96.7133ZM79.0159 96.1533H99.0639V91.5053H79.0159V96.1533Z" fill="#082F49"/>
<path d="M99.3439 105.112H78.6799C78.5119 105.112 78.3999 105 78.3999 104.832V99.6238C78.3999 99.4557 78.5119 99.3438 78.6799 99.3438H99.3439C99.5119 99.3438 99.6239 99.4557 99.6239 99.6238V104.832C99.6799 105 99.5119 105.112 99.3439 105.112ZM79.0159 104.552H99.0639V99.9038H79.0159V104.552Z" fill="#082F49"/>
<path d="M99.3439 113.512H78.6799C78.5119 113.512 78.3999 113.4 78.3999 113.232V108.024C78.3999 107.856 78.5119 107.744 78.6799 107.744H99.3439C99.5119 107.744 99.6239 107.856 99.6239 108.024V113.232C99.6799 113.4 99.5119 113.512 99.3439 113.512ZM79.0159 112.952H99.0639V108.304H79.0159V112.952Z" fill="#082F49"/>
<path d="M99.3439 121.913H78.6799C78.5119 121.913 78.3999 121.801 78.3999 121.633V116.425C78.3999 116.257 78.5119 116.145 78.6799 116.145H99.3439C99.5119 116.145 99.6239 116.257 99.6239 116.425V121.633C99.6239 121.801 99.5119 121.913 99.3439 121.913ZM79.0159 121.353H99.0639V116.705H79.0159V121.353Z" fill="#082F49"/>
<path d="M134.176 91.5053H118.496C118.328 91.5053 118.216 91.3933 118.216 91.2253C118.216 91.0573 118.328 90.9453 118.496 90.9453H134.176C134.344 90.9453 134.456 91.0573 134.456 91.2253C134.512 91.3373 134.344 91.5053 134.176 91.5053Z" fill="#082F49"/>
<path d="M192.92 91.5053H140.392C140.224 91.5053 140.112 91.3933 140.112 91.2253C140.112 91.0573 140.224 90.9453 140.392 90.9453H192.92C193.088 90.9453 193.2 91.0573 193.2 91.2253C193.2 91.3933 193.088 91.5053 192.92 91.5053Z" fill="#082F49"/>
<path d="M192.92 94.9213H140.392C140.224 94.9213 140.112 94.8093 140.112 94.6413C140.112 94.4733 140.224 94.3613 140.392 94.3613H192.92C193.088 94.3613 193.2 94.4733 193.2 94.6413C193.2 94.8093 193.088 94.9213 192.92 94.9213Z" fill="#082F49"/>
<path d="M134.176 100.8H118.496C118.328 100.8 118.216 100.688 118.216 100.52C118.216 100.352 118.328 100.24 118.496 100.24H134.176C134.344 100.24 134.456 100.352 134.456 100.52C134.456 100.688 134.344 100.8 134.176 100.8Z" fill="#082F49"/>
<path d="M192.92 100.8H140.392C140.224 100.8 140.112 100.688 140.112 100.52C140.112 100.352 140.224 100.24 140.392 100.24H192.92C193.088 100.24 193.2 100.352 193.2 100.52C193.2 100.632 193.088 100.8 192.92 100.8Z" fill="#082F49"/>
<path d="M192.92 104.216H140.392C140.224 104.216 140.112 104.104 140.112 103.936C140.112 103.768 140.224 103.656 140.392 103.656H192.92C193.088 103.656 193.2 103.768 193.2 103.936C193.2 104.104 193.088 104.216 192.92 104.216Z" fill="#082F49"/>
<path d="M134.176 110.097H118.496C118.328 110.097 118.216 109.985 118.216 109.817C118.216 109.649 118.328 109.537 118.496 109.537H134.176C134.344 109.537 134.456 109.649 134.456 109.817C134.456 109.985 134.344 110.097 134.176 110.097Z" fill="#082F49"/>
<path d="M192.92 110.097H140.392C140.224 110.097 140.112 109.985 140.112 109.817C140.112 109.649 140.224 109.537 140.392 109.537H192.92C193.088 109.537 193.2 109.649 193.2 109.817C193.2 109.929 193.088 110.097 192.92 110.097Z" fill="#082F49"/>
<path d="M192.92 113.513H140.392C140.224 113.513 140.112 113.401 140.112 113.233C140.112 113.065 140.224 112.953 140.392 112.953H192.92C193.088 112.953 193.2 113.065 193.2 113.233C193.2 113.401 193.088 113.513 192.92 113.513Z" fill="#082F49"/>
<path d="M134.176 119.337H118.496C118.328 119.337 118.216 119.225 118.216 119.057C118.216 118.889 118.328 118.777 118.496 118.777H134.176C134.344 118.777 134.456 118.889 134.456 119.057C134.512 119.225 134.344 119.337 134.176 119.337Z" fill="#082F49"/>
<path d="M192.92 119.337H140.392C140.224 119.337 140.112 119.225 140.112 119.057C140.112 118.889 140.224 118.777 140.392 118.777H192.92C193.088 118.777 193.2 118.889 193.2 119.057C193.2 119.225 193.088 119.337 192.92 119.337Z" fill="#082F49"/>
<path d="M192.92 122.808H140.392C140.224 122.808 140.112 122.696 140.112 122.528C140.112 122.36 140.224 122.248 140.392 122.248H192.92C193.088 122.248 193.2 122.36 193.2 122.528C193.2 122.696 193.088 122.808 192.92 122.808Z" fill="#082F49"/>
<path d="M134.176 128.632H118.496C118.328 128.632 118.216 128.52 118.216 128.352C118.216 128.184 118.328 128.072 118.496 128.072H134.176C134.344 128.072 134.456 128.184 134.456 128.352C134.512 128.52 134.344 128.632 134.176 128.632Z" fill="#082F49"/>
<path d="M192.92 128.632H140.392C140.224 128.632 140.112 128.52 140.112 128.352C140.112 128.184 140.224 128.072 140.392 128.072H192.92C193.088 128.072 193.2 128.184 193.2 128.352C193.2 128.52 193.088 128.632 192.92 128.632Z" fill="#082F49"/>
<path d="M192.92 132.105H140.392C140.224 132.105 140.112 131.993 140.112 131.825C140.112 131.657 140.224 131.545 140.392 131.545H192.92C193.088 131.545 193.2 131.657 193.2 131.825C193.2 131.993 193.088 132.105 192.92 132.105Z" fill="#082F49"/>
<path d="M134.176 85.6796H119.28C119.112 85.6796 119 85.5676 119 85.3996V79.2956C119 79.1276 119.112 79.0156 119.28 79.0156H134.232C134.4 79.0156 134.512 79.1276 134.512 79.2956V85.3996C134.456 85.5676 134.344 85.6796 134.176 85.6796ZM119.504 85.1196H133.896V79.6316H119.504V85.1196Z" fill="#082F49"/>
<path d="M192.92 85.6796H140.392C140.224 85.6796 140.112 85.5676 140.112 85.3996V79.2956C140.112 79.1276 140.224 79.0156 140.392 79.0156H192.92C193.088 79.0156 193.2 79.1276 193.2 79.2956V85.3996C193.2 85.5676 193.088 85.6796 192.92 85.6796ZM140.672 85.1196H192.64V79.6316H140.672V85.1196Z" fill="#082F49"/>
<path d="M232.512 43.4004H177.968V88.2564H232.512V43.4004Z" fill="white"/>
<path d="M232.456 88.5351H177.968C177.8 88.5351 177.688 88.4231 177.688 88.2551V43.3991C177.688 43.2311 177.8 43.1191 177.968 43.1191H232.456C232.624 43.1191 232.736 43.2311 232.736 43.3991V88.2551C232.736 88.4231 232.624 88.5351 232.456 88.5351ZM178.192 87.9751H232.12V43.6791H178.192V87.9751Z" fill="#082F49"/>
<path d="M221.592 61.377H188.048V83.665H221.592V61.377Z" fill="white"/>
<path d="M221.592 83.9437H188.048C187.88 83.9437 187.768 83.8317 187.768 83.6637V61.3757C187.768 61.2077 187.88 61.0957 188.048 61.0957H221.592C221.76 61.0957 221.872 61.2077 221.872 61.3757V83.6637C221.872 83.7757 221.76 83.9437 221.592 83.9437ZM188.328 83.3277H221.312V61.5997H188.328V83.3277Z" fill="#082F49"/>
<path d="M221.592 61.3757L217.392 64.1757L204.792 72.5197L192.248 64.1757L188.048 61.3757L192.248 57.7917L202.608 48.9997L204.792 47.0957L207.032 48.9997L217.392 57.7917L221.592 61.3757Z" fill="white"/>
<path d="M204.792 72.7997C204.736 72.7997 204.68 72.7997 204.624 72.7437L187.88 61.5997C187.824 61.5437 187.768 61.4877 187.768 61.3757C187.768 61.2637 187.824 61.2077 187.88 61.1517L204.624 46.9278C204.736 46.8158 204.904 46.8158 205.016 46.9278L221.76 61.1517C221.816 61.2077 221.872 61.3197 221.872 61.3757C221.872 61.4877 221.816 61.5437 221.76 61.5997L204.96 72.7437C204.904 72.7997 204.848 72.7997 204.792 72.7997ZM188.496 61.3197L204.792 72.1278L221.088 61.3197L204.792 47.4877L188.496 61.3197Z" fill="#082F49"/>
<path d="M188.048 83.9434C187.992 83.9434 187.936 83.9434 187.88 83.8874C187.768 83.7754 187.712 83.6074 187.824 83.4954L199.416 68.9354C199.528 68.8234 199.696 68.7674 199.808 68.8794C199.92 68.9914 199.976 69.1594 199.864 69.2714L188.272 83.8314C188.216 83.8874 188.16 83.9434 188.048 83.9434Z" fill="#082F49"/>
<path d="M221.592 83.9449C221.48 83.9449 221.424 83.8889 221.368 83.8329L209.776 69.2729C209.664 69.1609 209.664 68.9929 209.776 68.8809C209.888 68.7689 210.056 68.7689 210.168 68.8809L210.224 68.9369L221.816 83.4969C221.928 83.6089 221.872 83.7769 221.76 83.8889C221.704 83.8889 221.648 83.9449 221.592 83.9449Z" fill="#082F49"/>
<path d="M217.392 49V64.176L204.792 72.52L192.248 64.176V49H217.392Z" fill="#FCBFA5"/>
<path d="M204.792 72.8007C204.736 72.8007 204.68 72.8007 204.624 72.7447L192.08 64.4007C192.024 64.3447 191.968 64.2327 191.968 64.1767V49.0007C191.968 48.8327 192.08 48.7207 192.248 48.7207H217.336C217.504 48.7207 217.616 48.8327 217.616 49.0007V64.1767C217.616 64.2887 217.56 64.3447 217.504 64.4007L204.96 72.7447C204.904 72.8007 204.848 72.8007 204.792 72.8007ZM192.528 64.0087L204.792 72.1287L217.056 64.0087V49.2807H192.528V64.0087Z" fill="#082F49"/>
<path d="M202.44 53.6479H195.216C195.048 53.6479 194.936 53.5359 194.936 53.3679C194.936 53.1999 195.048 53.0879 195.216 53.0879H202.44C202.608 53.0879 202.72 53.1999 202.72 53.3679C202.72 53.5359 202.608 53.6479 202.44 53.6479Z" fill="#082F49"/>
<path d="M213.304 56.2807H195.216C195.048 56.2807 194.936 56.1687 194.936 56.0007C194.936 55.8327 195.048 55.7207 195.216 55.7207H213.304C213.472 55.7207 213.584 55.8327 213.584 56.0007C213.584 56.1127 213.416 56.2807 213.304 56.2807Z" fill="#082F49"/>
<path d="M213.304 58.8569H195.216C195.048 58.8569 194.936 58.7449 194.936 58.5769C194.936 58.4089 195.048 58.2969 195.216 58.2969H213.304C213.472 58.2969 213.584 58.4089 213.584 58.5769C213.584 58.7449 213.416 58.8569 213.304 58.8569Z" fill="#082F49"/>
<path d="M213.304 61.4877H195.216C195.048 61.4877 194.936 61.3757 194.936 61.2077C194.936 61.0397 195.048 60.9277 195.216 60.9277H213.304C213.472 60.9277 213.584 61.0397 213.584 61.2077C213.584 61.3757 213.416 61.4877 213.304 61.4877Z" fill="#082F49"/>
<path d="M213.304 64.1205H195.216C195.048 64.1205 194.936 64.0085 194.936 63.8405C194.936 63.6725 195.048 63.5605 195.216 63.5605H213.304C213.472 63.5605 213.584 63.6725 213.584 63.8405C213.584 63.9525 213.416 64.1205 213.304 64.1205Z" fill="#082F49"/>
<path d="M177.968 48.6074C180.844 48.6074 183.176 46.2757 183.176 43.3994C183.176 40.5231 180.844 38.1914 177.968 38.1914C175.091 38.1914 172.76 40.5231 172.76 43.3994C172.76 46.2757 175.091 48.6074 177.968 48.6074Z" fill="#FCBFA5"/>
<path d="M177.968 48.8881C174.944 48.8881 172.48 46.4241 172.48 43.4001C172.48 40.3761 174.944 37.9121 177.968 37.9121C180.992 37.9121 183.456 40.3761 183.456 43.4001C183.4 46.4241 180.992 48.8881 177.968 48.8881ZM177.968 38.4721C175.28 38.4721 173.04 40.6561 173.04 43.4001C173.04 46.0881 175.224 48.3281 177.968 48.3281C180.656 48.3281 182.896 46.1441 182.896 43.4001C182.84 40.6561 180.656 38.4721 177.968 38.4721Z" fill="#082F49"/>
<path d="M177.968 46.593C177.8 46.593 177.688 46.481 177.688 46.313V40.489C177.688 40.321 177.8 40.209 177.968 40.209C178.136 40.209 178.248 40.321 178.248 40.489V46.313C178.248 46.425 178.08 46.593 177.968 46.593Z" fill="#082F49"/>
<path d="M180.824 43.6791H175C174.832 43.6791 174.72 43.5671 174.72 43.3991C174.72 43.2311 174.832 43.1191 175 43.1191H180.824C180.992 43.1191 181.104 43.2311 181.104 43.3991C181.16 43.5671 180.992 43.6791 180.824 43.6791Z" fill="#082F49"/>
<path d="M175.896 45.6955C175.84 45.6955 175.728 45.6395 175.672 45.5835C175.56 45.4715 175.56 45.3035 175.672 45.1915L179.76 41.1035C179.872 40.9915 180.04 40.9915 180.152 41.1035C180.264 41.2155 180.264 41.3835 180.152 41.4955L176.064 45.5835C176.064 45.6955 175.952 45.6955 175.896 45.6955Z" fill="#082F49"/>
<path d="M179.984 45.6955C179.928 45.6955 179.816 45.6395 179.76 45.5835L175.672 41.4955C175.56 41.3835 175.56 41.2155 175.672 41.1035C175.784 40.9915 175.952 40.9915 176.064 41.1035L180.152 45.1915C180.264 45.3035 180.264 45.4715 180.152 45.5835C180.152 45.6955 180.096 45.6955 179.984 45.6955Z" fill="#082F49"/>
<path d="M221.592 76.9437C224.035 76.9437 226.016 74.963 226.016 72.5197C226.016 70.0764 224.035 68.0957 221.592 68.0957C219.149 68.0957 217.168 70.0764 217.168 72.5197C217.168 74.963 219.149 76.9437 221.592 76.9437Z" fill="#FCBFA5"/>
<path d="M221.592 77.2244C218.96 77.2244 216.888 75.0964 216.888 72.5204C216.888 69.8884 219.016 67.8164 221.592 67.8164C224.224 67.8164 226.296 69.9444 226.296 72.5204C226.296 75.0964 224.168 77.2244 221.592 77.2244ZM221.592 68.3764C219.296 68.3764 217.448 70.2244 217.448 72.5204C217.448 74.8164 219.296 76.6644 221.592 76.6644C223.888 76.6644 225.736 74.8164 225.736 72.5204C225.736 70.2244 223.888 68.3764 221.592 68.3764Z" fill="#082F49"/>
<path d="M221.424 70.8959L220.696 71.2879L220.584 70.8399L221.536 70.3359H222.04V74.6479H221.48L221.424 70.8959Z" fill="white"/>
</svg>
