<svg
		width="24"
		height="24"
		viewBox="0 0 24 24"
		fill="none"
		xmlns="http://www.w3.org/2000/svg"
	>
		<path
			d="M12.0002 0C5.37167 0 0 5.37381 0 11.9991C0 18.6267 5.37167 24 12.0002 24C18.6279 24 24 18.6267 24 11.9991C24 5.37241 18.6269 0 12.0002 0ZM11.7686 14.1946C11.6219 14.7039 11.403 15.154 11.102 15.5402C10.809 15.9218 10.426 16.2254 9.96699 16.4447C9.5038 16.6625 8.95904 16.7716 8.32145 16.7716C7.66183 16.7716 7.10253 16.6541 6.63606 16.4218C6.17147 16.1942 5.79642 15.8835 5.50013 15.4945C5.21368 15.1083 4.9985 14.6592 4.86488 14.147C4.72752 13.6316 4.66189 13.0966 4.66189 12.5355V8.18455H6.56715V12.5355C6.56715 12.8662 6.59809 13.1796 6.65857 13.473C6.72092 13.7729 6.81796 14.0341 6.96142 14.2673C7.10253 14.4987 7.27787 14.6839 7.50337 14.8187C7.7209 14.9544 7.99328 15.023 8.32098 15.023C8.64868 15.023 8.91919 14.9544 9.14469 14.814C9.37019 14.6741 9.55584 14.4889 9.68945 14.2594C9.83056 14.0276 9.92995 13.7599 9.98902 13.4567C10.0462 13.1591 10.0767 12.8545 10.0767 12.5369V8.18875H11.9819V12.5369H11.9829C11.9824 13.1325 11.9102 13.6824 11.7686 14.1946ZM19.3376 16.7726H13.5665V14.9941H19.3376V16.7726ZM19.3376 13.3685H13.5665V11.59H19.3376V13.3685ZM19.3376 9.96587H13.5665V8.18735H19.3376V9.96587Z"
			fill="url(#paint0_linear_17897_4967)"
		/>
		<defs>
			<linearGradient
				id="paint0_linear_17897_4967"
				x1="0"
				y1="12"
				x2="24.0002"
				y2="12"
				gradientUnits="userSpaceOnUse"
			>
				<stop stopColor="#681DDD" />
				<stop offset="1" stopColor="#3A1B95" />
			</linearGradient>
		</defs>
	</svg>